<svg xmlns="http://www.w3.org/2000/svg" width="24.8" height="24.8" viewBox="0 0 24.8 24.8">
  <path id="_Icon_Color" data-name="🔹 Icon Color" d="M22.5,24H1.5A1.5,1.5,0,0,1,0,22.5v-3c0-3.939,7.812-6,12-6s12,2.06,12,6v3A1.5,1.5,0,0,1,22.5,24ZM12,16.35c-4.461,0-9.15,2.185-9.15,3.15V21.15h18.3V19.5C21.15,18.535,16.461,16.35,12,16.35ZM12,12a6,6,0,1,1,6-6A6.007,6.007,0,0,1,12,12Zm0-9.15A3.15,3.15,0,1,0,15.15,6,3.153,3.153,0,0,0,12,2.85Z" transform="translate(0.4 0.4)" fill="#455378" stroke="#fff" stroke-width="0.8"/>
</svg>
