<svg xmlns="http://www.w3.org/2000/svg" xmlns:xlink="http://www.w3.org/1999/xlink" width="1084.924" height="768.189" viewBox="0 0 1084.924 768.189">
  <defs>
    <clipPath id="clip-path">
      <rect id="Rectangle_38" data-name="Rectangle 38" width="942" height="759" transform="translate(0 226.695)" fill="#fff" stroke="#707070" stroke-width="1"/>
    </clipPath>
    <linearGradient id="linear-gradient" x1="0.614" y1="1.109" x2="0.156" y2="-0.178" gradientUnits="objectBoundingBox">
      <stop offset="0" stop-color="#fe8d71"/>
      <stop offset="0.422" stop-color="#fe9d85"/>
      <stop offset="0.712" stop-color="#feae9a"/>
      <stop offset="1" stop-color="#febeae"/>
    </linearGradient>
    <linearGradient id="linear-gradient-2" x1="0.916" y1="1.154" x2="-0.14" y2="-0.131" gradientUnits="objectBoundingBox">
      <stop offset="0" stop-color="#fbbae2"/>
      <stop offset="0.05" stop-color="#fbc4e5"/>
      <stop offset="0.157" stop-color="#fcd5ea"/>
      <stop offset="0.291" stop-color="#fce1ed"/>
      <stop offset="0.479" stop-color="#fce8ef"/>
      <stop offset="1" stop-color="#fdeaf0"/>
    </linearGradient>
    <linearGradient id="linear-gradient-3" x1="0.811" y1="2.433" x2="-0.402" y2="-5.14" xlink:href="#linear-gradient-2"/>
    <linearGradient id="linear-gradient-4" x1="2.934" y1="1.126" x2="-6.164" y2="-1.57" xlink:href="#linear-gradient-2"/>
    <linearGradient id="linear-gradient-5" x1="0.632" y1="0.968" x2="-1.332" y2="-6.119" xlink:href="#linear-gradient-2"/>
    <linearGradient id="linear-gradient-6" x1="0.447" y1="0.966" x2="0.556" y2="-0.122" xlink:href="#linear-gradient"/>
    <linearGradient id="linear-gradient-7" x1="-0.031" y1="1.052" x2="1.003" y2="-0.099" gradientUnits="objectBoundingBox">
      <stop offset="0" stop-color="#fbbae2"/>
      <stop offset="0.128" stop-color="#fcd2ec"/>
      <stop offset="0.272" stop-color="#fde6f4"/>
      <stop offset="0.438" stop-color="#fef4fa"/>
      <stop offset="0.642" stop-color="#fefcfd"/>
      <stop offset="1" stop-color="#fff"/>
    </linearGradient>
    <linearGradient id="linear-gradient-8" x1="0.37" y1="1.427" x2="1.532" y2="-6.874" xlink:href="#linear-gradient-7"/>
    <linearGradient id="linear-gradient-9" x1="0.324" y1="1.407" x2="1.142" y2="-2.922" xlink:href="#linear-gradient-7"/>
    <linearGradient id="linear-gradient-10" x1="0.089" y1="1.997" x2="0.97" y2="-1.222" xlink:href="#linear-gradient-7"/>
    <linearGradient id="linear-gradient-11" x1="1.496" y1="1.433" x2="0.27" y2="-0.414" gradientUnits="objectBoundingBox">
      <stop offset="0" stop-color="#fe8d71"/>
      <stop offset="0.399" stop-color="#fe9d85"/>
      <stop offset="0.507" stop-color="#feae9a"/>
      <stop offset="1" stop-color="#febeae"/>
    </linearGradient>
    <linearGradient id="linear-gradient-12" x1="0.923" y1="1.246" x2="-0.55" y2="-0.559" xlink:href="#linear-gradient"/>
  </defs>
  <g id="Group_470" data-name="Group 470" transform="translate(0 -322)">
    <g id="Group_427" data-name="Group 427">
      <g id="Group_180" data-name="Group 180" transform="translate(0 95.305)">
        <g id="Mask_Group_1" data-name="Mask Group 1" transform="translate(0 0)" clip-path="url(#clip-path)">
          <path id="Path_78" data-name="Path 78" d="M1058.029,461.874c-4.294-47.384,11.552-93.983,38.243-146.671,30.545-60.3,18.219-138.455-13.03-198.393-31.492-60.4-96.419-98.63-163.548-110.19S650.635-20.7,464.251,145.464c-47.34,42.206-101.8,68.173-191.187,99.47C22.528,332.656-.376,476.261,0,535.378,1.061,699.1,88.87,756.565,138.523,792.116c87.308,62.51,206.105,47.477,322.781,35.383,88.964-9.22,179.118-5.011,267.34,9.7,95.116,15.865,332.365,69.21,375.9-128.991C1134.256,572.91,1063.054,517.272,1058.029,461.874Z" transform="translate(272.787 12.805) rotate(64)" fill="#fe7452"/>
        </g>
      </g>
      <g id="vector" transform="translate(73.919 419.767)">
        <g id="Group_271" data-name="Group 271" transform="translate(234.637 0)">
          <path id="Path_177" data-name="Path 177" d="M218.283,532.583c2.829,19.351,2.5,40.45-8.372,56.7-18.019,26.951-60.516,34.425-69.355,65.618-6.4,22.583,9.736,46.1,29.707,58.442s43.578,17.189,64.982,26.831a98.553,98.553,0,0,1,28.042,18.553q1.874,1.811,3.58,3.737,8.455.111,17.877.221l8.75.094q8.116.1,16.857.173c15.2.152,31.791.295,49.663.436,16.333.126,33.743.241,52.134.362,117.1.741,274.389,1.254,451.16,1.417q1.449-4.582,2.845-9.2c8.9-29.34,15.881-59.624,10.56-89.525-6.346-35.648-36.425-69.9-72.566-67.669-13.437.823-26.238,6.46-39.68,7.195-33.019,1.8-60.536-26.1-75.044-55.813s-21.009-63.172-38.414-91.288-51.766-50.491-82.775-39.013c-27.586,10.208-40.5,41.868-64.153,59.361-37.821,27.97-95.308,11.321-125.755-24.526s-39.847-84.774-44.408-131.586-5.632-95.02-23.361-138.588S253.243,102.132,206.206,102.2c-42.545.058-80.413,33.04-95.152,72.955s-9.594,84.864,4.483,125.01,36.535,76.718,57.067,113.988S212.131,490.484,218.283,532.583Z" transform="translate(-102.194 -102.201)" fill="url(#linear-gradient)"/>
          <g id="Group_270" data-name="Group 270" transform="translate(87.32 49.575)" opacity="0.5" style="mix-blend-mode: screen;isolation: isolate">
            <path id="Path_178" data-name="Path 178" d="M624.864,696.284c-14.62-9.384-30.274-20.259-46.426-32.805a643.8,643.8,0,0,1-49.453-42.638c-4.2-3.935-8.293-8.079-12.494-12.213-4.1-4.229-8.311-8.455-12.4-12.881-4.159-4.361-8.2-8.914-12.331-13.471-4.035-4.641-8.147-9.294-12.134-14.127A628.423,628.423,0,0,1,395.54,438.175c-2.775-5.618-5.333-11.276-7.913-16.857-2.465-5.633-4.96-11.189-7.233-16.77-2.362-5.543-4.492-11.112-6.668-16.589-2.05-5.525-4.151-10.959-6.019-16.4a644.019,644.019,0,0,1-18.622-62.585c-4.822-19.875-8.326-38.611-10.894-55.792s-4.14-32.827-5.089-46.58-1.31-25.623-1.287-35.32c0-2.423-.011-4.711.025-6.859q.086-3.221.16-6.022.1-2.794.182-5.158c.09-1.573.188-3,.282-4.271.382-5.094.776-7.76,1.181-7.757s.8,2.677,1.175,7.75q.128,1.9.283,4.251.171,2.344.372,5.125.177,2.775.383,5.975.236,3.193.5,6.8c.672,9.6,1.7,21.329,3.249,34.89s3.69,28.952,6.737,45.838,6.976,35.266,12.133,54.751c5.2,19.469,11.495,40.076,19.358,61.313,1.906,5.329,4.04,10.65,6.115,16.061,2.2,5.362,4.351,10.816,6.726,16.245,2.287,5.465,4.788,10.9,7.253,16.422,2.58,5.465,5.131,11.01,7.894,16.512a649.52,649.52,0,0,0,82.609,127.686c3.887,4.774,7.9,9.373,11.825,13.967,4.022,4.511,7.958,9.022,12.006,13.348,3.977,4.39,8.072,8.586,12.06,12.792,4.085,4.111,8.064,8.238,12.144,12.161,16.147,15.876,32.363,30.065,47.99,42.789,15.659,12.69,30.82,23.8,44.967,33.507s27.318,17.958,39.049,24.934,22.01,12.715,30.494,17.264l5.993,3.247,5.294,2.8,4.521,2.44,3.761,2c4.472,2.424,6.749,3.879,6.586,4.249s-2.755-.364-7.557-2.1q-1.8-.654-4.013-1.493-2.186-.892-4.779-1.948l-5.558-2.323c-1.975-.848-4.055-1.8-6.267-2.788-8.853-3.953-19.53-9.149-31.688-15.651S639.49,705.662,624.864,696.284Z" transform="translate(-327.872 -141.214)" fill="url(#linear-gradient-2)"/>
            <path id="Path_179" data-name="Path 179" d="M374.95,530.634c.431-.681,5.162,1.292,13.31,5.423q3.056,1.548,6.739,3.5c2.473,1.257,5.2,2.553,8.088,4.007,5.81,2.853,12.283,6.343,19.685,9.72q5.5,2.629,11.505,5.5c1.981.995,4.078,1.85,6.178,2.8l6.433,2.85,6.646,2.965c1.128.5,2.253,1.024,3.407,1.51l3.5,1.43,14.5,5.956c19.966,7.826,42.177,15.724,65.894,22.751,23.761,6.875,46.725,12.2,67.758,16.382l15.418,2.8,3.722.686c1.234.214,2.465.376,3.682.565l7.195,1.089,6.955,1.07c2.278.337,4.506.746,6.709.977l12.654,1.577c8.055,1.149,15.387,1.7,21.818,2.432,3.218.336,6.211.714,8.973.989,2.761.231,5.287.463,7.56.691,9.09.916,14.137,1.806,14.133,2.613s-5.066,1.455-14.263,1.935c-2.3.121-4.855.23-7.655.329-2.8.055-5.836,0-9.1-.029-6.532-.114-13.991-.094-22.2-.726l-12.9-.844c-2.247-.116-4.52-.414-6.845-.644l-7.1-.759-7.346-.8c-1.244-.145-2.5-.263-3.761-.432l-3.8-.559-15.751-2.36a630.363,630.363,0,0,1-69.14-15.766,630.516,630.516,0,0,1-66.726-24.015l-14.536-6.51-3.5-1.58c-1.153-.536-2.276-1.115-3.4-1.665l-6.619-3.286-6.387-3.19c-2.081-1.061-4.157-2.036-6.112-3.15l-11.317-6.248c-7.25-3.894-13.521-7.935-19.081-11.362-2.766-1.74-5.355-3.329-7.682-4.885q-3.458-2.39-6.27-4.406C378.431,534.592,374.518,531.317,374.95,530.634Z" transform="translate(-374.918 -35.823)" fill="url(#linear-gradient-3)"/>
            <path id="Path_180" data-name="Path 180" d="M333.021,640.2c-1.025-2.512-1.939-5.261-2.965-8.161-1.05-2.895-1.982-6.007-2.994-9.271q-.375-1.226-.761-2.479c-.252-.837-.473-1.694-.713-2.554l-1.441-5.291c-.511-1.8-.915-3.656-1.375-5.54-.442-1.89-.918-3.81-1.35-5.774q-.6-2.956-1.23-6.012c-.2-1.019-.424-2.045-.615-3.084s-.361-2.088-.544-3.145c-.357-2.113-.748-4.254-1.085-6.435q-.461-3.277-.935-6.64c-.342-2.24-.554-4.523-.818-6.828-.245-2.305-.538-4.636-.7-7q-.282-3.545-.571-7.166-.183-3.625-.371-7.319c-.4-9.854-.388-20.077.126-30.528.569-10.448,1.615-20.617,3.027-30.378q.568-3.654,1.126-7.242.66-3.57,1.308-7.069c.407-2.336.936-4.623,1.419-6.891.5-2.266.948-4.514,1.519-6.707q.818-3.3,1.616-6.507c.56-2.134,1.169-4.224,1.743-6.289q.436-1.548.867-3.073c.3-1.013.623-2.01.93-3q.936-2.975,1.844-5.853c.633-1.91,1.3-3.77,1.939-5.6.652-1.827,1.245-3.636,1.939-5.37q1.01-2.609,1.98-5.112c.328-.832.635-1.661.973-2.468s.679-1.6,1.013-2.388c1.343-3.141,2.592-6.141,3.934-8.912,1.32-2.779,2.512-5.418,3.792-7.811,1.254-2.4,2.4-4.646,3.531-6.673q1.731-3.023,3.206-5.478c.493-.816.951-1.588,1.411-2.3l1.327-1.97q1.25-1.82,2.193-3.019c1.254-1.593,2.08-2.333,2.436-2.142s.224,1.3-.349,3.237c-.286.966-.682,2.139-1.183,3.5q-.385,1.02-.83,2.192t-.919,2.5q-.984,2.646-2.242,5.831l-2.6,6.944c-.973,2.468-1.865,5.169-2.892,7.993-1.048,2.816-2.012,5.847-3.078,9q-.4,1.184-.807,2.4c-.269.808-.51,1.637-.771,2.469q-.776,2.5-1.585,5.1c-.565,1.726-1.033,3.521-1.562,5.333-.513,1.816-1.064,3.657-1.578,5.542q-.74,2.838-1.5,5.77c-.252.977-.524,1.957-.766,2.953s-.471,2-.71,3.017c-.47,2.027-.98,4.075-1.445,6.163q-.661,3.139-1.342,6.361c-.483,2.14-.848,4.333-1.269,6.54-.4,2.21-.86,4.436-1.2,6.708l-1.113,6.87q-.477,3.481-.962,7.027c-1.215,9.466-2.146,19.3-2.7,29.408-.5,10.107-.586,19.99-.355,29.53q.116,3.578.23,7.091.2,3.507.4,6.947c.1,2.295.325,4.556.5,6.8.192,2.239.328,4.458.587,6.637q.345,3.275.679,6.465c.247,2.125.543,4.214.8,6.279q.2,1.548.394,3.074c.138,1.015.309,2.019.457,3.017q.457,3,.9,5.895c.318,1.928.675,3.816,1,5.675.339,1.857.619,3.691,1,5.465q.536,2.672,1.05,5.235c.174.854.328,1.7.512,2.536s.372,1.653.555,2.465c.735,3.249,1.38,6.363,2.132,9.273.729,2.915,1.338,5.693,2.051,8.25q1,3.86,1.864,7.174c.615,2.195,1.159,4.21,1.628,6.031q.349,1.369.657,2.585t.6,2.266c.358,1.409.632,2.616.816,3.608.37,1.982.386,3.1.013,3.254s-1.12-.668-2.2-2.381c-.541-.858-1.167-1.938-1.87-3.23l-1.116-2.1c-.384-.755-.759-1.571-1.166-2.432q-1.21-2.59-2.623-5.78C334.931,645.069,334.02,642.721,333.021,640.2Z" transform="translate(59.605 -78.007)" fill="url(#linear-gradient-4)"/>
            <path id="Path_181" data-name="Path 181" d="M136.544,626.962c.8-.225,1.8-.455,2.976-.687l4.051-.766c1.522-.285,3.212-.577,5.06-.875l5.993-1.072c2.151-.342,4.432-.837,6.857-1.285,2.427-.428,4.972-1.006,7.647-1.559l2.029-.421c.684-.145,1.37-.318,2.066-.477l4.266-.987c1.455-.313,2.92-.724,4.421-1.1s3.028-.756,4.576-1.169l4.707-1.314c.8-.224,1.6-.435,2.408-.674l2.428-.74c1.63-.5,3.291-.982,4.961-1.513q2.5-.821,5.06-1.665c1.715-.536,3.42-1.181,5.157-1.788s3.5-1.212,5.247-1.906l5.326-2.029,5.378-2.2c7.209-3.019,14.569-6.388,21.963-10.129,7.373-3.783,14.424-7.757,21.106-11.814l4.941-3.056,4.773-3.116c1.59-1.008,3.1-2.089,4.627-3.125s3.034-2.048,4.477-3.12l4.322-3.115c1.411-1.039,2.775-2.1,4.14-3.125l2.027-1.53c.666-.511,1.31-1.039,1.959-1.552l3.83-3.036c1.243-1.009,2.442-2.029,3.636-3.014s2.379-1.938,3.487-2.932l3.305-2.869c.539-.471,1.083-.924,1.6-1.393l1.534-1.394c2.019-1.839,3.982-3.558,5.755-5.27,1.788-1.7,3.529-3.253,5.07-4.792l4.392-4.217q1.99-1.98,3.681-3.58l3-2.826c.879-.815,1.649-1.485,2.305-2,1.309-1.038,2.154-1.469,2.474-1.222s.1,1.159-.621,2.677c-.36.76-.845,1.671-1.449,2.727q-.454.791-1,1.691c-.366.593-.78,1.208-1.215,1.864q-1.308,1.961-2.966,4.314c-1.121,1.55-2.4,3.19-3.76,4.961-1.347,1.788-2.91,3.591-4.536,5.539s-3.431,3.928-5.324,6.014l-1.442,1.581c-.489.529-1.005,1.044-1.516,1.576q-1.548,1.584-3.159,3.237c-1.064,1.114-2.217,2.178-3.366,3.291s-2.328,2.243-3.545,3.369q-1.853,1.664-3.768,3.381c-.64.569-1.278,1.154-1.939,1.722l-2.014,1.7c-1.357,1.133-2.721,2.3-4.134,3.449l-4.343,3.426c-1.456,1.173-3,2.272-4.529,3.416s-3.084,2.306-4.7,3.4q-2.413,1.67-4.877,3.375l-5.07,3.294c-6.871,4.36-14.179,8.574-21.862,12.513-7.7,3.9-15.408,7.333-22.973,10.33q-2.848,1.092-5.646,2.165l-5.6,1.962c-1.84.666-3.7,1.222-5.519,1.806-1.826.568-3.62,1.168-5.425,1.654l-5.324,1.5c-1.757.47-3.506.886-5.22,1.318l-2.557.632c-.848.2-1.7.372-2.533.557l-4.95,1.06c-1.628.324-3.235.6-4.81.888-1.577.275-3.115.582-4.642.788l-4.474.653c-.731.1-1.451.216-2.167.3l-2.126.239c-2.8.305-5.462.62-8,.771-2.531.17-4.909.375-7.147.413-2.235.062-4.31.132-6.224.127-1.915-.028-3.663-.074-5.234-.137-.785-.034-1.526-.06-2.222-.113s-1.348-.123-1.953-.188c-1.208-.132-2.231-.276-3.057-.431-1.652-.311-2.52-.668-2.531-1.073S134.935,627.41,136.544,626.962Z" transform="translate(302.799 -38.548)" fill="url(#linear-gradient-5)"/>
          </g>
        </g>
        <g id="Group_290" data-name="Group 290" transform="translate(0 77.869)">
          <g id="Group_289" data-name="Group 289">
            <path id="Path_191" data-name="Path 191" d="M901.666,506.354c11.533-8.565,24.8-15.221,33.968-26.281s12.736-28.8,2.943-39.307c-11.011-11.818-31.415-7.913-44.53-17.34-12.013-8.636-14.205-26.225-9.818-40.354s13.86-26,21.741-38.52a191.774,191.774,0,0,0,28.258-120.256c-1.389-13.828-4.435-27.842-11.93-39.546s-20.085-20.809-33.977-21.252c-18.67-.593-34.92,14.517-41.8,31.881s-6.455,36.634-6.078,55.308c.221,10.947.327,22.254-3.863,32.37s-13.841,18.8-24.781,18.353c-12.909-.532-22.071-12.684-34.017-17.608-17.4-7.169-38.737,3.4-47.134,20.238s-5.568,37.64,3.373,54.2,23.259,29.521,38.132,41.046c10.53,8.161,21.717,16.019,29.12,27.1s10.176,26.477,2.829,37.591c-8.543,12.923-26.97,15.536-37.169,27.2-12.749,14.578-7.75,38.271,4.7,53.11s30.4,23.665,46.4,34.578a108.117,108.117,0,0,1,16.827,13.819c3.494,3.609,9.285,16.507,12.9,18.3,9.272,4.608,6.352-21.748,8.05-30.492C861.446,551.35,877.759,524.107,901.666,506.354Z" transform="translate(-725.626 -163.48)" fill="url(#linear-gradient-6)"/>
            <g id="Group_285" data-name="Group 285" transform="translate(107.108 27.786)">
              <path id="Path_192" data-name="Path 192" d="M815.392,185.35c-.214.083.025,1.417.667,3.86.315,1.224.779,2.709,1.161,4.515l.689,2.886q.189.77.39,1.588c.119.55.217,1.122.334,1.707.441,2.344,1.024,4.923,1.393,7.8q.162,1.073.33,2.192c.114.745.239,1.5.3,2.287q.246,2.339.511,4.858a172.62,172.62,0,0,1,.385,22.9c-.8,16.972-4.3,37.035-10.8,58.643l-1.22,4.082q-.642,2.047-1.295,4.117c-.85,2.764-1.8,5.539-2.71,8.355q-2.84,8.425-5.937,17.161c-4.115,11.647-8.544,23.691-12.72,36.2q-3.154,9.37-5.872,18.662l-1.33,4.628q-.612,2.322-1.216,4.625t-1.2,4.589c-.408,1.52-.726,3.057-1.089,4.575a350.332,350.332,0,0,0-6.526,35.385c-1.486,11.372-2.413,22.235-2.855,32.416-.114,2.545-.144,5.05-.216,7.507q-.046,1.841-.09,3.65,0,1.809.009,3.582.015,3.547.032,6.947.114,3.4.221,6.643a305.062,305.062,0,0,0,4.123,40.734c.765,4.77,1.621,8.429,2.216,10.9s1.034,3.75,1.259,3.711.238-1.39.057-3.923-.61-6.237-.977-11.024c-.865-9.553-1.964-23.393-2-40.5q0-3.206,0-6.563.086-3.353.175-6.853.044-1.748.09-3.531.091-1.782.185-3.6c.133-2.419.224-4.886.4-7.392.671-10.022,1.789-20.7,3.413-31.862,1.607-11.168,3.895-22.8,6.793-34.723.369-1.489.69-3,1.1-4.488s.8-3,1.208-4.5.81-3.019,1.217-4.538q.661-2.264,1.328-4.548,2.7-9.121,5.831-18.418c4.135-12.4,8.511-24.431,12.562-36.157,2.041-5.854,3.974-11.647,5.822-17.337.893-2.859,1.816-5.671,2.643-8.486q.633-2.106,1.257-4.187.593-2.093,1.179-4.162c6.288-22.059,9.41-42.752,9.614-60.185a157.291,157.291,0,0,0-1.386-23.465q-.412-2.564-.794-4.947c-.113-.8-.286-1.567-.449-2.323s-.321-1.5-.478-2.221c-.565-2.909-1.351-5.506-2-7.849-.167-.585-.316-1.155-.488-1.7q-.28-.814-.543-1.58-.536-1.523-1-2.85a44.079,44.079,0,0,0-1.785-4.378C816.258,186.439,815.6,185.267,815.392,185.35Z" transform="translate(-766.478 -185.346)" fill="url(#linear-gradient-7)"/>
            </g>
            <g id="Group_286" data-name="Group 286" transform="translate(53.294 340.668)">
              <path id="Path_193" data-name="Path 193" d="M814.031,431.963c-.136.436.738,1.2,2.4,2.193.414.248.878.511,1.388.785l1.627.963c1.163.689,2.522,1.365,3.943,2.273l2.262,1.341c.784.465,1.562,1.017,2.391,1.539,1.674,1.019,3.354,2.275,5.155,3.524a101.022,101.022,0,0,1,20.419,19.774c1.308,1.761,2.615,3.4,3.688,5.041.549.812,1.126,1.572,1.615,2.341l1.413,2.217c.953,1.391,1.672,2.728,2.4,3.868q.541.852,1.014,1.595.437.751.83,1.362c1.046,1.624,1.837,2.474,2.269,2.325s.461-1.291.13-3.266q-.124-.74-.316-1.633c-.141-.588-.341-1.211-.545-1.887a40.076,40.076,0,0,0-1.623-4.514q-.534-1.227-1.116-2.564c-.4-.888-.9-1.766-1.381-2.7a66.761,66.761,0,0,0-3.431-5.758A72.893,72.893,0,0,0,836.6,439.525a66.408,66.408,0,0,0-5.865-3.245c-.947-.452-1.841-.923-2.741-1.295l-2.6-1.032a40.107,40.107,0,0,0-4.563-1.477c-.681-.183-1.31-.362-1.9-.485q-.9-.162-1.643-.263C815.306,431.46,814.166,431.527,814.031,431.963Z" transform="translate(-814.017 -431.569)" fill="url(#linear-gradient-8)"/>
            </g>
            <g id="Group_287" data-name="Group 287" transform="translate(121.964 285.731)">
              <path id="Path_194" data-name="Path 194" d="M817.9,388.492c-.192-.414-1.986.005-5.107,1.14-.779.285-1.642.613-2.582.984-.926.4-1.9.891-2.959,1.4A74.721,74.721,0,0,0,800.2,395.8l-3.981,2.432c-.705.408-1.357.916-2.051,1.4s-1.388.987-2.1,1.5l-2.168,1.558c-.365.267-.743.525-1.1.808l-1.074.879-4.436,3.667A125.9,125.9,0,0,0,752.424,448.6q-1.207,2.7-2.352,5.253-.282.639-.562,1.268c-.177.423-.324.856-.484,1.28q-.469,1.273-.924,2.506t-.882,2.421c-.277.8-.592,1.562-.8,2.35q-.667,2.337-1.282,4.486a74.784,74.784,0,0,0-1.766,7.8c-.211,1.159-.43,2.229-.563,3.228-.107,1.005-.193,1.924-.259,2.751-.262,3.309-.187,5.15.263,5.225s1.235-1.616,2.259-4.7c.255-.77.526-1.628.811-2.567.31-.931.7-1.931,1.073-3.013.784-2.151,1.508-4.641,2.634-7.286l1.63-4.185c.258-.736.624-1.447.948-2.189s.671-1.493,1.015-2.259.689-1.545,1.041-2.337c.179-.4.342-.8.536-1.194s.4-.787.609-1.184l2.5-4.909a150.691,150.691,0,0,1,29.52-38.8l4.066-3.714q.492-.456.978-.9c.329-.292.675-.559,1.008-.836l1.976-1.625,1.906-1.581c.629-.511,1.217-1.053,1.858-1.5l3.6-2.688c2.248-1.79,4.454-3.151,6.319-4.482.943-.648,1.8-1.29,2.618-1.837q1.245-.785,2.258-1.465C816.668,390.115,818.09,388.907,817.9,388.492Z" transform="translate(-742.401 -388.336)" fill="url(#linear-gradient-9)"/>
            </g>
            <g id="Group_288" data-name="Group 288" transform="translate(29.847 143.447)">
              <path id="Path_195" data-name="Path 195" d="M819.141,276.418c-.319.328.877,2.158,3.291,5.164q.905,1.128,2.036,2.472,1.092,1.378,2.365,2.98c1.689,2.142,3.712,4.483,5.753,7.233q1.573,2.028,3.286,4.24c1.141,1.473,2.24,3.075,3.434,4.688l1.806,2.469c.3.419.621.834.921,1.266l.893,1.318q1.8,2.646,3.712,5.44c4.946,7.534,10.088,16,14.954,25.179,4.8,9.217,8.843,18.257,12.237,26.6q1.218,3.153,2.371,6.145.29.745.578,1.482c.184.493.346.99.518,1.478q.511,1.468,1.008,2.888c.649,1.9,1.343,3.712,1.909,5.488s1.107,3.482,1.625,5.111c1.106,3.243,1.883,6.238,2.688,8.843l1.111,3.639q.465,1.691.879,3.079c1.1,3.694,1.931,5.717,2.383,5.641s.482-2.247.146-6.135q-.126-1.458-.32-3.231c-.149-1.177-.369-2.444-.59-3.81-.47-2.724-.943-5.852-1.775-9.236q-.595-2.55-1.244-5.335c-.447-1.851-1.032-3.745-1.582-5.722q-.427-1.481-.867-3.01c-.15-.508-.29-1.025-.454-1.539s-.343-1.025-.516-1.544q-1.054-3.109-2.164-6.393a215.3,215.3,0,0,0-27.878-53.091l-4.035-5.412-.977-1.3c-.33-.426-.676-.834-1.009-1.247l-1.986-2.422c-1.317-1.576-2.541-3.132-3.812-4.552l-3.685-4.051c-2.313-2.608-4.619-4.772-6.6-6.707-1-.957-1.916-1.857-2.8-2.648-.9-.775-1.726-1.477-2.478-2.1C821.264,277.3,819.459,276.09,819.141,276.418Z" transform="translate(-819.091 -276.365)" fill="url(#linear-gradient-10)"/>
            </g>
          </g>
          <path id="Path_196" data-name="Path 196" d="M779.293,655.131a336.884,336.884,0,0,0,90.884,0,255.643,255.643,0,0,0,15.369-31.743,259.629,259.629,0,0,0,18.121-115.933q-1.927-.616-3.858-1.206a255.32,255.32,0,0,0-142.624-2.188q-3.772,1.035-7.525,2.188-1.935.587-3.857,1.206A259.846,259.846,0,0,0,779.293,655.131Z" transform="translate(-710.319 -73.739)" fill="url(#linear-gradient-11)"/>
          <path id="Path_197" data-name="Path 197" d="M794.115,653.192a336.871,336.871,0,0,0,90.884,0,255.637,255.637,0,0,0,15.369-31.743c-19.756,3.958-39.939,4.684-58.814-1.735-25.009-8.5-44.841-29.051-56.057-52.966-9.42-20.088-13.212-42.375-13.49-64.627q-3.772,1.035-7.525,2.188-1.935.587-3.857,1.206A259.846,259.846,0,0,0,794.115,653.192Z" transform="translate(-725.142 -71.8)" fill="url(#linear-gradient-12)"/>
        </g>
        <g id="Group_295" data-name="Group 295" transform="translate(410.478 63.349)">
          <path id="Path_198" data-name="Path 198" d="M407.563,275.827,418.527,445.09H562l10.969-169.262a51.222,51.222,0,0,0-37.323-52.641h0a168.56,168.56,0,0,0-90.759,0h0A51.22,51.22,0,0,0,407.563,275.827Z" transform="translate(-360.452 -134.481)" fill="#2d3a5a"/>
          <g id="Group_293" data-name="Group 293" transform="translate(0 298.668)">
            <path id="Path_199" data-name="Path 199" d="M374.175,614.481v9.973l116.134-21.191,116.134,21.191v-9.973L490.309,580.145Z" transform="translate(-351.528 -334.825)" fill="#2d3a5a"/>
            <rect id="Rectangle_101" data-name="Rectangle 101" width="26.136" height="194.573" transform="translate(125.712 53.958)" fill="#3d4c72"/>
            <path id="Path_200" data-name="Path 200" d="M455.283,429.553v22.179a47.916,47.916,0,0,1,4.919-5.369c5.747-5.368,13.5-9.124,21.216-9.1v-7.706Z" transform="translate(-329.57 -375.595)" fill="#2d3a5a"/>
            <path id="Path_201" data-name="Path 201" d="M580.333,421.108c2.121,14.274-2.929,30.74-14.09,37.167-7.868,4.53-17.278,3.495-25.586.37s-15.985-8.176-24.192-11.639a68.906,68.906,0,0,0-54.5.46c-12.214,5.359-23.919,14.387-36.925,13.916-11.388-.412-22.233-8.94-26.826-21.1s-2.714-27.347,4.652-37.579c9.954-13.824,27.247-16.981,42.518-14.807s29.929,8.633,45.254,10.246c21.6,2.271,39.911-8,60.734-10.872C567.7,385.02,577.8,404.063,580.333,421.108Z" transform="translate(-353.268 -387.09)" fill="#2d3a5a"/>
            <rect id="Rectangle_102" data-name="Rectangle 102" width="38.337" height="89.902" transform="translate(119.612 178.536)" fill="#2d3a5a"/>
            <g id="Group_291" data-name="Group 291" transform="translate(0 256.632)">
              <ellipse id="Ellipse_39" data-name="Ellipse 39" cx="19.265" cy="19.265" rx="19.265" ry="19.265" transform="matrix(-0.892, -0.451, 0.451, -0.892, 34.379, 51.774)" fill="#2d3a5a"/>
              <path id="Path_202" data-name="Path 202" d="M547.308,611.341a9.022,9.022,0,1,0,9.022-9.022A9.023,9.023,0,0,0,547.308,611.341Z" transform="translate(-530.443 -585.454)" fill="#2d3a5a"/>
            </g>
            <g id="Group_292" data-name="Group 292" transform="translate(229.56 260.405)">
              <ellipse id="Ellipse_40" data-name="Ellipse 40" cx="19.265" cy="19.265" rx="19.265" ry="19.265" transform="translate(6.201 44.228) rotate(-99.262)" fill="#2d3a5a"/>
              <path id="Path_203" data-name="Path 203" d="M369.625,611.341a9.022,9.022,0,1,0,9.022-9.022A9.022,9.022,0,0,0,369.625,611.341Z" transform="translate(-356.533 -589.227)" fill="#2d3a5a"/>
            </g>
          </g>
          <path id="Path_204" data-name="Path 204" d="M424.818,596.336c-1.478,5.381,1.934,11.044,6.4,14.394s9.9,5.091,14.829,7.706,9.678,6.606,10.783,12.077c-17.667,3.319-36.185,3.625-53.62-.753-1.446-10.583,1.405-26.955,5.2-36.94C414.5,590.932,418.44,596.4,424.818,596.336Z" transform="translate(-238.32 -32.834)" fill="#2d3a5a"/>
          <path id="Path_205" data-name="Path 205" d="M326.96,381.1c3.228,22.277,10.645,43.642,19.968,64.183,8.786,19.362,19.267,38,29.549,55.993,8.894,15.57,17.64,30.661,25,45.328q5.274,10.514,10.743,20.492c17.852,32.659,37.17,61.607,57.331,90.727a250.774,250.774,0,0,0,26.576-7.147c-24.7-49.128-46.3-98.359-64.749-150.891a1166.142,1166.142,0,0,1-34.864-119.522C380.618,378.893,342.856,382.472,326.96,381.1Z" transform="translate(-181.214 -90.358)" fill="#d13b17"/>
          <path id="Path_206" data-name="Path 206" d="M381.183,385.086c0,.362,0,.745.013,1.144a54.867,54.867,0,0,0,25.628,44.981c35.937,22.461,92.483-8.422,92.483-8.422h0c-.276.56-11.438,26.258-17.432,84.873-3.566,34.92-6.843,85.553-8.266,158.345q12.725,2.211,26,3.191c2.256-33.1,9.477-64.6,18.006-95.716,6.16-22.485,13.007-44.766,19.159-67.31,8.081-29.6,14.964-59.645,17.527-91.166,1.225-15.073.985-31.7-5.957-43.55-6.481-11.064-17.554-15.408-27.927-15.087s-20.428,4.6-30.531,7.838c-25.793,8.27-51.194,8.646-76.616,2.869a191.677,191.677,0,0,1-26.9-8.307A68.147,68.147,0,0,0,381.183,385.086Z" transform="translate(-308.862 -96.745)" fill="#f35730"/>
          <path id="Path_207" data-name="Path 207" d="M523.186,233.917c12.123-7.133,20.424-21.23,21.226-36.042s-5.925-29.844-17.2-38.436c-7.34-5.6-16.629-8.5-25.523-6.99-13.388,2.27-24.318,14.709-27.1,28.943s1.973,29.537,11.055,40.334c-2.418-3.8-8.214-3.858-12.077-1.855s-6.579,5.831-9.077,9.572-5.05,7.654-8.76,9.963c-6.336,3.942-15.368,1.67-19.413-4.882,4.287,20.71,19.863,37.405,39.593,38.736,7.8.525,16.345-1.517,21.292-8.008,2.883-3.783,4.216-8.617,5.5-13.306s2.652-9.519,5.586-13.255S518.924,232.2,523.186,233.917Z" transform="translate(-368.527 -152.054)" fill="#3d4c72"/>
          <path id="Path_208" data-name="Path 208" d="M481.749,208.583a23.856,23.856,0,0,1,4.43,1.445,5.366,5.366,0,0,1,2.967,3.407c.554,2.508-1.717,5-4.254,5.407s-5.087-.8-7.079-2.422a17.509,17.509,0,0,1-6.092-10.445c-.179-1.019-.568-1.975.478-1.9.788.052,2.352,1.507,3.1,1.91A31.9,31.9,0,0,0,481.749,208.583Z" transform="translate(-357.988 -137.972)" fill="#d13b17"/>
          <path id="Path_209" data-name="Path 209" d="M451.644,238.584a35.934,35.934,0,0,0,10.03,7.059,39.687,39.687,0,0,0,28.233,2.206,75.166,75.166,0,0,1-1.093-7.449c-.069-.759-.131-1.518-.18-2.277q-.124-1.832-.15-3.666a75.618,75.618,0,0,1,3.115-22.738c-9.415-6.318-19.312-11.768-27.354-19.764a60.886,60.886,0,0,1-4.076,32.41A57.1,57.1,0,0,1,451.644,238.584Z" transform="translate(-335.126 -141.251)" fill="#ffcec2"/>
          <path id="Path_210" data-name="Path 210" d="M406.483,364.059a17.028,17.028,0,0,0,6.905,1.469q21.987.082,43.732.217c40.55.239,80.8.555,122.112.615Q566.616,320.787,554,275.217c-2.336-8.443-4.89-17.283-10.584-23.29-4.212-4.439-9.717-6.857-15.078-9.17q-6.494-2.808-12.984-5.609-8.535-3.688-17.075-7.377a62.034,62.034,0,0,0-33.138-4.329c-10.048,1.554-19.349,5.984-25.568,14.1-6.155,8.022-9.9,18.033-13.536,27.854q-1.782,4.813-3.58,9.6c-6.82,18.164-13.744,36.012-20.628,53.978q-2.183,5.688-4.352,11.393A17.107,17.107,0,0,0,406.483,364.059Z" transform="translate(-352.489 -132.363)" fill="#b4c8ec"/>
          <path id="Path_211" data-name="Path 211" d="M489.191,359.032A17.028,17.028,0,0,0,496.1,360.5q21.987.082,43.732.217v-7.837c-21.241-16.66,17.012-99.143,17.012-99.143l-1.4-10.386-70.909,82.592q-2.182,5.688-4.352,11.393A17.107,17.107,0,0,0,489.191,359.032Z" transform="translate(-435.197 -127.336)" fill="#91bdec"/>
          <path id="Path_212" data-name="Path 212" d="M449.933,252.452a41.42,41.42,0,0,0,3.778,5.839c.122.158.249.316.371.474,4.23,5.3,9.857,9.641,16.383,11.453,6.721,1.863,14.421.769,19.781-3.693,5.591-4.651,8-12.388,7.417-19.638a33.66,33.66,0,0,0-2.364-9.739q-5.125-2.219-10.26-4.435-2.257-.968-4.515-1.947c-.769-.33-1.533-.665-2.3-.995a62.034,62.034,0,0,0-33.138-4.329A44.9,44.9,0,0,0,449.933,252.452Z" transform="translate(-332.438 -132.363)" fill="#ffcec2"/>
          <path id="Path_213" data-name="Path 213" d="M451.644,224.365a35.2,35.2,0,0,0,28.316,10.092,75.618,75.618,0,0,1,3.115-22.738c-9.415-6.318-19.312-11.768-27.354-19.764A60.886,60.886,0,0,1,451.644,224.365Z" transform="translate(-326.602 -141.251)" fill="#f2b0a0"/>
          <path id="Path_214" data-name="Path 214" d="M447.014,223.852c.4.806.831,1.61,1.306,2.4,2.733,4.624,6.643,8.745,11.846,9.491,4.266.61,8.618-1.283,11.75-4.253l.009-.009a29.513,29.513,0,0,0,6.73-10.928,61.718,61.718,0,0,0,3.747-28.565,18.846,18.846,0,0,1-7.44-14.837c-8.853,8.754-21.16,14.11-33.566,15.47A58.091,58.091,0,0,0,447.014,223.852Z" transform="translate(-312.9 -145.259)" fill="#ffcec2"/>
          <path id="Path_215" data-name="Path 215" d="M480.438,194.58a17.974,17.974,0,0,0-2.71-4.895c-.959-1.23-2.357-2.428-3.891-2.146-1.46.271-2.347,1.77-2.77,3.193A12.052,12.052,0,0,0,481.94,206.2C481.036,202.016,481.9,198.606,480.438,194.58Z" transform="translate(-349.53 -142.458)" fill="#ffcec2"/>
          <path id="Path_216" data-name="Path 216" d="M472.612,201.447a3.1,3.1,0,1,0,3.1-3.1A3.1,3.1,0,0,0,472.612,201.447Z" transform="translate(-348.981 -139.52)" fill="#fff"/>
          <path id="Path_217" data-name="Path 217" d="M514.512,349.736c4.049-26.622,16.5-52.412,35.594-71.139a53.017,53.017,0,0,1-20.067-12.726c-8.262,22-16.673,43.533-24.98,65.371a17.083,17.083,0,0,0,6.014,19.972A2.2,2.2,0,0,0,514.512,349.736Z" transform="translate(-460.073 -121.24)" fill="#ffcec2"/>
          <path id="Path_218" data-name="Path 218" d="M453.835,251.5a41.42,41.42,0,0,0,3.778,5.839c.122.158.249.316.371.474a105.944,105.944,0,0,0,8.989-19.163,22.378,22.378,0,0,0,15.308-1.709c1.731-.872,5.157-3.886,7.746-6.382-.069-.759-.131-1.519-.18-2.277-2.066.781-4.488,1.934-5.42,1.532a20.287,20.287,0,0,1-9.293.895c-2.616-.412-5.392-1.234-7.814-.168-2.156.945-3.4,3.1-4.434,5.261-.186.389-.366.778-.543,1.158A89.568,89.568,0,0,1,453.835,251.5Z" transform="translate(-336.34 -131.415)" fill="#f2b0a0"/>
          <g id="Group_294" data-name="Group 294" transform="translate(47.53 91.661)">
            <path id="Path_219" data-name="Path 219" d="M555.347,224.478c-.964-.822-3.338.122-6.957,2.473q-1.357.881-2.942,2.023c-1.046.766-2.142,1.637-3.319,2.576-2.338,1.892-5,4.065-7.762,6.628q-2.093,1.906-4.355,4.027c-1.5,1.416-3,2.942-4.571,4.512-3.168,3.126-6.366,6.62-9.725,10.332-1.675,1.858-3.306,3.825-5,5.822q-1.26,1.508-2.545,3.047l-2.5,3.176-2.524,3.256-1.268,1.657-1.236,1.7q-2.466,3.418-4.944,6.979-2.392,3.608-4.656,7.173c-.375.595-.754,1.184-1.117,1.78l-1.062,1.793-2.071,3.561q-1,1.776-1.991,3.522l-1.834,3.519c-1.184,2.336-2.356,4.617-3.385,6.9s-2,4.523-2.9,6.713c-.925,2.182-1.676,4.366-2.417,6.469-.719,2.111-1.408,4.15-1.965,6.153s-1.037,3.943-1.452,5.81a65.85,65.85,0,0,0-1.521,10.316c-.1,1.558-.147,3.022-.1,4.4a32.97,32.97,0,0,0,.379,3.849c.766,4.727,2.6,7.787,5.359,8.771s6.16-.191,9.762-3.122a32.294,32.294,0,0,0,2.738-2.525c.934-.943,1.9-1.981,2.864-3.121a97.083,97.083,0,0,0,5.886-7.945q1.51-2.243,3.012-4.746c1.005-1.663,2.071-3.381,3.1-5.192,2.028-3.633,4.2-7.5,6.3-11.647,1.055-2.074,2.182-4.174,3.258-6.359q.8-1.641,1.621-3.315.837-1.666,1.688-3.365.831-1.71,1.675-3.449.416-.875.832-1.756l.867-1.755q1.737-3.526,3.448-7.2,1.792-3.625,3.479-7.209.421-.9.84-1.784.435-.883.864-1.755.85-1.757,1.686-3.486l1.637-3.445q.837-1.694,1.657-3.356c1.1-2.214,2.118-4.423,3.178-6.543s2.087-4.2,3.075-6.228c.968-2.046,2-3.975,2.937-5.886.957-1.9,1.844-3.764,2.742-5.53s1.761-3.467,2.572-5.1c1.594-3.3,3.124-6.232,4.378-8.9.634-1.325,1.2-2.583,1.724-3.741s1.005-2.217,1.408-3.2C555.794,227.825,556.311,225.3,555.347,224.478Z" transform="translate(-469.205 -224.186)" fill="#ffcec2"/>
          </g>
          <path id="Path_220" data-name="Path 220" d="M449.642,215.954c2.733,4.624,6.643,8.745,11.846,9.491,4.266.61,8.618-1.283,11.75-4.253-2.8-3.313-7.168-5.192-11.524-5.763A42.675,42.675,0,0,0,449.642,215.954Z" transform="translate(-314.222 -134.96)" fill="#f2b0a0"/>
          <path id="Path_221" data-name="Path 221" d="M453.037,230.492a14.339,14.339,0,0,1,6.275-10.3c4.436-2.923,10.068-3.116,15.378-3.215a19.489,19.489,0,0,1,5.646.446,6.582,6.582,0,0,1,4.338,3.384c1.09,2.44.02,5.3-1.4,7.562a25.431,25.431,0,0,1-33.419,8.943C450.973,235.5,452.811,232.613,453.037,230.492Z" transform="translate(-326.375 -134.481)" fill="#ffcec2"/>
          <path id="Path_222" data-name="Path 222" d="M312.2,592.136c2.392,5.282,8.877,7.544,14.669,7.26s11.292-2.5,16.969-3.685,12.121-1.144,16.636,2.494c-11.919,14.382-26.518,26.919-43.361,34.993-8.182-7.5-20.15-26.141-23.749-36.64C296.983,591.006,307.143,596.42,312.2,592.136Z" transform="translate(-2.873 -32.912)" fill="#2d3a5a"/>
          <path id="Path_223" data-name="Path 223" d="M452.826,211.045a1.128,1.128,0,0,0-1.295,1.264,4.914,4.914,0,0,0,9.285,1.418,1.129,1.129,0,0,0-.858-1.593Z" transform="translate(-304.295 -136.087)" fill="#efefef"/>
        </g>
        <g id="Group_296" data-name="Group 296" transform="translate(397.882 244.239)">
          <path id="Path_224" data-name="Path 224" d="M546.829,312.93a10.327,10.327,0,0,1,1.33-2.506,10.087,10.087,0,0,1,1.892-1.965,9.542,9.542,0,0,1,4.553-1.973,8.222,8.222,0,0,1,2.3-.01,8.04,8.04,0,0,1,2.042.585,7.758,7.758,0,0,1,2.188,1.492v-12.5a1.645,1.645,0,0,1,1.643-1.643h30.712a1.644,1.644,0,0,1,1.643,1.643V342.54a1.643,1.643,0,0,1-1.643,1.643H562.779a1.644,1.644,0,0,1-1.643-1.643V331.932c-.5.186-.935.371-1.277.527-.609.268-1,.452-1.233.306-.22-.131-.239-.638.16-1.384.039-.074.084-.146.132-.225-.38-.088-.765-.189-1.165-.311a18.937,18.937,0,0,1-4.484-2,16.145,16.145,0,0,1-4.388-3.948,14.244,14.244,0,0,1-1.682-2.848,13.011,13.011,0,0,1-.965-3.4A11.949,11.949,0,0,1,546.829,312.93Zm4.328,5.046a9.671,9.671,0,0,0,1.629,4.094,14.233,14.233,0,0,0,2.974,3.159,25.673,25.673,0,0,0,5.376,3.135V312.3a7.052,7.052,0,0,0-1.35-1.112,6.025,6.025,0,0,0-2-.809,5.246,5.246,0,0,0-1.15-.077,5.346,5.346,0,0,0-1.229.229,6.069,6.069,0,0,0-2.394,1.423,6.006,6.006,0,0,0-1.588,2.588A7.958,7.958,0,0,0,551.157,317.976Z" transform="translate(-546.121 -294.405)" fill="#9eaecc"/>
          <path id="Path_225" data-name="Path 225" d="M546.829,312.93a10.327,10.327,0,0,1,1.33-2.506,10.087,10.087,0,0,1,1.892-1.965,9.542,9.542,0,0,1,4.553-1.973,8.222,8.222,0,0,1,2.3-.01,8.04,8.04,0,0,1,2.042.585,7.758,7.758,0,0,1,2.188,1.492v-12.5a1.645,1.645,0,0,1,1.643-1.643H565.6a31.637,31.637,0,0,0,29.532,45.148v2.988a1.643,1.643,0,0,1-1.643,1.643H562.779a1.644,1.644,0,0,1-1.643-1.643V331.932c-.5.186-.935.371-1.277.527-.609.268-1,.452-1.233.306-.22-.131-.239-.638.16-1.384.039-.074.084-.146.132-.225-.38-.088-.765-.189-1.165-.311a18.937,18.937,0,0,1-4.484-2,16.145,16.145,0,0,1-4.388-3.948,14.244,14.244,0,0,1-1.682-2.848,13.011,13.011,0,0,1-.965-3.4A11.949,11.949,0,0,1,546.829,312.93Zm4.328,5.046a9.671,9.671,0,0,0,1.629,4.094,14.233,14.233,0,0,0,2.974,3.159,25.673,25.673,0,0,0,5.376,3.135V312.3a7.052,7.052,0,0,0-1.35-1.112,6.025,6.025,0,0,0-2-.809,5.246,5.246,0,0,0-1.15-.077,5.346,5.346,0,0,0-1.229.229,6.069,6.069,0,0,0-2.394,1.423,6.006,6.006,0,0,0-1.588,2.588A7.958,7.958,0,0,0,551.157,317.976Z" transform="translate(-546.121 -294.405)" fill="#899bbd"/>
        </g>
        <path id="Path_226" data-name="Path 226" d="M291.441,328.963h54.336a2.911,2.911,0,0,1,2.911,2.911h0a2.911,2.911,0,0,1-2.911,2.913H291.441a2.911,2.911,0,0,1-2.911-2.913h0A2.911,2.911,0,0,1,291.441,328.963Z" transform="translate(425.534 -40.81)" fill="#3d4c72"/>
        <g id="Group_297" data-name="Group 297" transform="translate(501.406 194.265)">
          <path id="Path_227" data-name="Path 227" d="M414.461,258.3l-17.8,88.182a4.019,4.019,0,0,1-3.939,3.223H330.924a4.019,4.019,0,0,0-4.019,4.018h0a4.019,4.019,0,0,0,4.019,4.019H527.831a4.019,4.019,0,0,0,3.939-3.224l19.107-94.627a4.019,4.019,0,0,0-3.939-4.815H418.4A4.019,4.019,0,0,0,414.461,258.3Z" transform="translate(-326.905 -255.078)" fill="#3d4c72"/>
          <path id="Path_228" data-name="Path 228" d="M373.64,302.124h26.136l3.164-10.962H376.8Z" transform="translate(-238.274 -245.309)" fill="#fff"/>
        </g>
        <g id="Group_300" data-name="Group 300" transform="translate(239.296 293.718)">
          <g id="Group_298" data-name="Group 298" transform="translate(326.592)">
            <path id="Path_231" data-name="Path 231" d="M0,0H289.631V27.054H0Z" transform="translate(0 20.615)" fill="#5d6983"/>
            <rect id="Rectangle_104" data-name="Rectangle 104" width="33.523" height="322.111" transform="translate(209.479 47.67)" fill="#5d6983"/>
            <rect id="Rectangle_105" data-name="Rectangle 105" width="33.523" height="23.237" transform="translate(209.479 47.67)" fill="#556077"/>
            <rect id="Rectangle_106" data-name="Rectangle 106" width="33.523" height="322.111" transform="translate(93.525 47.67)" fill="#556077"/>
            <rect id="Rectangle_107" data-name="Rectangle 107" width="33.523" height="23.237" transform="translate(93.525 47.67)" fill="#556077"/>
            <rect id="Rectangle_108" data-name="Rectangle 108" width="321.193" height="28.481" transform="translate(0)" fill="#7a85a0"/>
            <path id="Path_229" data-name="Path 229" d="M512.9,356.061c-14.827-.995-129.293-1.841-289.63-2.242v4.928c160.338-.407,274.8-1.247,289.63-2.248a4.808,4.808,0,0,0,1.634-.22A4.835,4.835,0,0,0,512.9,356.061Z" transform="translate(-223.267 -327.799)" fill="#556077"/>
          </g>
          <g id="Group_299" data-name="Group 299" transform="translate(0)">
            <rect id="Rectangle_109" data-name="Rectangle 109" width="295.031" height="27.054" transform="translate(31.561 20.615)" fill="#5d6983"/>
            <rect id="Rectangle_110" data-name="Rectangle 110" width="33.523" height="322.111" transform="translate(78.191 47.67)" fill="#5d6983"/>
            <rect id="Rectangle_111" data-name="Rectangle 111" width="33.523" height="23.237" transform="translate(78.191 47.67)" fill="#556077"/>
            <rect id="Rectangle_112" data-name="Rectangle 112" width="33.523" height="322.111" transform="translate(194.145 47.67)" fill="#556077"/>
            <rect id="Rectangle_113" data-name="Rectangle 113" width="33.523" height="23.237" transform="translate(194.145 47.67)" fill="#556077"/>
            <rect id="Rectangle_114" data-name="Rectangle 114" width="326.592" height="28.481" fill="#7a85a0"/>
            <path id="Path_230" data-name="Path 230" d="M452.479,356.279c0,1.1,119.645,2.034,292.183,2.468v-4.928C572.124,354.251,452.479,355.188,452.479,356.279Z" transform="translate(-418.07 -327.799)" fill="#556077"/>
          </g>
        </g>
      </g>
    </g>
    <g id="Group_132" data-name="Group 132" transform="translate(724.778 407.428)">
      <g id="Group_112" data-name="Group 112" transform="translate(0)">
        <path id="Path_54" data-name="Path 54" d="M81.239,99.317a46.963,46.963,0,1,1,31.844,44.458L96.449,157.611,100.6,137.3A46.887,46.887,0,0,1,81.239,99.317Z" transform="translate(-81.239 -52.357)" fill="#7a85a0"/>
      </g>
      <g id="Group_131" data-name="Group 131" transform="translate(23.123 16.736)">
        <g id="Group_113" data-name="Group 113" transform="translate(0 5.109)">
          <rect id="Rectangle_27" data-name="Rectangle 27" width="46.836" height="49.763" fill="#fff"/>
        </g>
        <g id="Group_114" data-name="Group 114" transform="translate(0 5.109)">
          <rect id="Rectangle_28" data-name="Rectangle 28" width="46.836" height="14.728" fill="#fe7452"/>
        </g>
        <g id="Group_119" data-name="Group 119" transform="translate(9.281 26.265)">
          <g id="Group_116" data-name="Group 116">
            <g id="Group_115" data-name="Group 115">
              <path id="Path_55" data-name="Path 55" d="M105.872,85.406l8.6.088q-.813-1.414-1.624-2.829a15.311,15.311,0,0,1-4.951,6.386c-1.288.957-1.13,3.764.948,3.5,2.712-.341,8.289-.4,5.984,4.039-1.13,2.18-6.165,3.625-7.929,1.169-1.4-1.948-4.661-.073-3.246,1.9,3.321,4.625,11.779,3.827,14.513-1.12a6.778,6.778,0,0,0-.565-7.718c-2.2-2.5-5.729-2.406-8.756-2.026q.473,1.751.948,3.5a18.911,18.911,0,0,0,6.3-7.736,1.906,1.906,0,0,0-1.622-2.829l-8.6-.088c-2.421-.025-2.422,3.735,0,3.76Z" transform="translate(-103.311 -81.646)" fill="#fe7452"/>
            </g>
          </g>
          <g id="Group_118" data-name="Group 118" transform="translate(18.525 0.069)">
            <g id="Group_117" data-name="Group 117">
              <path id="Path_56" data-name="Path 56" d="M119.1,87.746a30.47,30.47,0,0,1,3.325-2.913l-3.209-1.33v17.49a1.881,1.881,0,0,0,3.76,0V83.5a1.9,1.9,0,0,0-3.209-1.329,30.324,30.324,0,0,0-3.325,2.914c-1.638,1.776,1.014,4.441,2.659,2.657Z" transform="translate(-115.928 -81.693)" fill="#fe7452"/>
            </g>
          </g>
        </g>
        <g id="Group_130" data-name="Group 130" transform="translate(4.706)">
          <g id="Group_121" data-name="Group 121">
            <g id="Group_120" data-name="Group 120">
              <path id="Path_57" data-name="Path 57" d="M100.194,65.572V74.72a1.881,1.881,0,0,0,3.76,0V65.572a1.881,1.881,0,0,0-3.76,0Z" transform="translate(-100.194 -63.756)" fill="#3d4c72"/>
            </g>
          </g>
          <g id="Group_123" data-name="Group 123" transform="translate(8.599)">
            <g id="Group_122" data-name="Group 122">
              <path id="Path_58" data-name="Path 58" d="M106.051,65.572V74.72a1.881,1.881,0,0,0,3.76,0V65.572a1.881,1.881,0,0,0-3.76,0Z" transform="translate(-106.051 -63.756)" fill="#3d4c72"/>
            </g>
          </g>
          <g id="Group_125" data-name="Group 125" transform="translate(17.198)">
            <g id="Group_124" data-name="Group 124">
              <path id="Path_59" data-name="Path 59" d="M111.908,65.572V74.72a1.881,1.881,0,0,0,3.76,0V65.572a1.881,1.881,0,0,0-3.76,0Z" transform="translate(-111.908 -63.756)" fill="#3d4c72"/>
            </g>
          </g>
          <g id="Group_127" data-name="Group 127" transform="translate(25.797)">
            <g id="Group_126" data-name="Group 126">
              <path id="Path_60" data-name="Path 60" d="M117.765,65.572V74.72a1.881,1.881,0,0,0,3.76,0V65.572a1.881,1.881,0,0,0-3.76,0Z" transform="translate(-117.765 -63.756)" fill="#3d4c72"/>
            </g>
          </g>
          <g id="Group_129" data-name="Group 129" transform="translate(34.396)">
            <g id="Group_128" data-name="Group 128">
              <path id="Path_61" data-name="Path 61" d="M123.622,65.572V74.72a1.881,1.881,0,0,0,3.76,0V65.572a1.881,1.881,0,0,0-3.76,0Z" transform="translate(-123.622 -63.756)" fill="#3d4c72"/>
            </g>
          </g>
        </g>
      </g>
    </g>
    <g id="Group_152" data-name="Group 152" transform="translate(419.367 505.466)">
      <g id="Group_141" data-name="Group 141">
        <path id="Path_66" data-name="Path 66" d="M213.1,176.274c0-19.886-22.931-36.006-51.218-36.006s-51.218,16.12-51.218,36.006c0,15.821,14.523,29.25,34.7,34.081l16.515,26.788,1.862-24.9C191.162,211.556,213.1,195.72,213.1,176.274Z" transform="translate(-110.66 -140.268)" fill="#fff"/>
      </g>
      <g id="Group_144" data-name="Group 144" transform="translate(27.682 18.305)">
        <g id="Group_142" data-name="Group 142">
          <rect id="Rectangle_29" data-name="Rectangle 29" width="47.072" height="36.664" fill="#7a85a0"/>
        </g>
        <g id="Group_143" data-name="Group 143">
          <path id="Path_67" data-name="Path 67" d="M129.515,152.736l23.536,18.332,23.536-18.332Z" transform="translate(-129.515 -152.736)" fill="#3d4c72"/>
        </g>
      </g>
      <g id="Group_151" data-name="Group 151" transform="translate(56.456 6.083)">
        <g id="Group_145" data-name="Group 145" transform="translate(0 0)">
          <circle id="Ellipse_7" data-name="Ellipse 7" cx="10.937" cy="10.937" r="10.937" transform="translate(0 16.567) rotate(-49.235)" fill="#fe7452"/>
        </g>
        <g id="Group_150" data-name="Group 150" transform="translate(13.884 7.397)">
          <g id="Group_147" data-name="Group 147">
            <g id="Group_146" data-name="Group 146">
              <path id="Path_68" data-name="Path 68" d="M158.571,150.94v8.225a1.542,1.542,0,0,0,3.083,0V150.94a1.542,1.542,0,0,0-3.083,0Z" transform="translate(-158.571 -149.45)" fill="#fff"/>
            </g>
          </g>
          <g id="Group_149" data-name="Group 149" transform="translate(0.052 12.971)">
            <g id="Group_148" data-name="Group 148">
              <path id="Path_69" data-name="Path 69" d="M160.1,161.37a1.543,1.543,0,0,0,0-3.085,1.543,1.543,0,0,0,0,3.085Z" transform="translate(-158.606 -158.285)" fill="#fff"/>
            </g>
          </g>
        </g>
      </g>
    </g>
    <g id="Group_301" data-name="Group 301" transform="translate(806.852 521.148)">
      <g id="Group_175" data-name="Group 175" transform="translate(0 0)">
        <g id="Group_173" data-name="Group 173">
          <path id="Path_74" data-name="Path 74" d="M64.575,158.187h51.7a4.361,4.361,0,0,1,4.36,4.362v51.7a4.361,4.361,0,0,1-4.36,4.36h-34L65.237,239.35l2.651-20.739H64.575a4.362,4.362,0,0,1-4.362-4.36v-51.7A4.362,4.362,0,0,1,64.575,158.187Z" transform="translate(-60.213 -158.187)" fill="#fe7452"/>
        </g>
      </g>
      <path id="Icon_awesome-euro-sign" data-name="Icon awesome-euro-sign" d="M19.937,26.746a.769.769,0,0,0-.926-.6,13.481,13.481,0,0,1-2.915.347A8.261,8.261,0,0,1,8.3,21.009H15.6a.77.77,0,0,0,.751-.6l.409-1.82a.77.77,0,0,0-.751-.939H7.393A13.852,13.852,0,0,1,7.4,14.939h9.406a.77.77,0,0,0,.752-.605l.418-1.909a.77.77,0,0,0-.752-.935H8.353A8.059,8.059,0,0,1,15.9,6.676a12.568,12.568,0,0,1,2.429.266.77.77,0,0,0,.9-.553L20,3.541a.769.769,0,0,0-.6-.957,18.686,18.686,0,0,0-3.381-.334A13.713,13.713,0,0,0,2.892,11.49H.77a.77.77,0,0,0-.77.77v1.909a.77.77,0,0,0,.77.77H2.154a19.048,19.048,0,0,0-.012,2.711H.77a.77.77,0,0,0-.77.77v1.82a.77.77,0,0,0,.77.77H2.7A13.442,13.442,0,0,0,16.018,31a16,16,0,0,0,3.921-.5.77.77,0,0,0,.564-.9l-.566-2.855Z" transform="translate(19.239 13.92)" fill="#fff"/>
    </g>
    <g id="Group_469" data-name="Group 469">
      <path id="Union_1" data-name="Union 1" d="M41.27,80.6,22.942,55.247H6a6,6,0,0,1-6-6V6A6,6,0,0,1,6,0H66.093a6,6,0,0,1,6,6V49.247a6,6,0,0,1-6,6H38.283L41.271,80.6v0Z" transform="translate(555.761 394.631)" fill="#d6e4ff" stroke="rgba(0,0,0,0)" stroke-miterlimit="10" stroke-width="1"/>
      <text id="_" data-name="%" transform="translate(577 437)" fill="#455378" font-size="42" font-family="SegoeUI-Bold, Segoe UI" font-weight="700"><tspan x="0" y="0">%</tspan></text>
    </g>
  </g>
</svg>
